<svg id="Capa_1" data-name="Capa 1" xmlns="http://www.w3.org/2000/svg" viewBox="0 0 224.52 54.54"><defs><style>.cls-1{fill:#fff;}</style></defs><title>Behance_logo</title><path class="cls-1" d="M29.47,8.4c.81.1,1.62.17,2.42.32a14.61,14.61,0,0,1,4,1.25,6.66,6.66,0,0,1,3.56,4.47,11.05,11.05,0,0,1,.12,5.39,7.89,7.89,0,0,1-3.89,4.85c-.27.17-.54.32-.87.5l.95.35a8.6,8.6,0,0,1,5.57,6.84A10.4,10.4,0,0,1,40,40.12,9.73,9.73,0,0,1,34.87,44a19.86,19.86,0,0,1-7,1.19l-17.36,0V8.4ZM18.73,39.05h.49c2.57,0,5.14,0,7.7,0a20.57,20.57,0,0,0,2.6-.22,4.47,4.47,0,0,0,3.71-3.51,6.9,6.9,0,0,0-.11-3.1,3.88,3.88,0,0,0-2.65-2.91A8.57,8.57,0,0,0,28,28.83c-3-.06-6,0-9,0a1.87,1.87,0,0,0-.25,0Zm0-15.72H19c2.66,0,5.32,0,8,0a7.54,7.54,0,0,0,1.83-.25,3.61,3.61,0,0,0,2.84-2.49,6.41,6.41,0,0,0,.13-2.72,3.3,3.3,0,0,0-2.1-2.67,6.91,6.91,0,0,0-2.91-.51H18.73Z"/><path class="cls-1" d="M81,8.4c0,.12,0,.23,0,.35V22.3c.13-.12.21-.16.25-.23a8.53,8.53,0,0,1,6.14-4,10.76,10.76,0,0,1,6.86.84,7.15,7.15,0,0,1,3.91,5.47,21.67,21.67,0,0,1,.41,4c0,5.52,0,11,0,16.56,0,.11,0,.23,0,.37H91.27V30.48a12,12,0,0,0-.54-4A3.65,3.65,0,0,0,87,23.75a9.49,9.49,0,0,0-2.2.21,4.14,4.14,0,0,0-3.2,2.94A11.17,11.17,0,0,0,81,30.57q0,7.09,0,14.18v.55H73.66V8.91c0-.17,0-.34,0-.51Z"/><path class="cls-1" d="M200.22,46.14c-.77-.11-1.55-.18-2.31-.32a12.15,12.15,0,0,1-8.79-6.18,15.68,15.68,0,0,1-1.78-7.88,14.17,14.17,0,0,1,3.43-9.53,12.23,12.23,0,0,1,6.91-4,13.7,13.7,0,0,1,8,.41,12.1,12.1,0,0,1,6.79,6.66,15.79,15.79,0,0,1,1.46,5.57,1.38,1.38,0,0,0,.06.26v2.46c0,.34-.29.24-.48.24H194.57a8.3,8.3,0,0,0,.92,3.8,4.84,4.84,0,0,0,2.83,2.46,8.53,8.53,0,0,0,5.05.15,5.53,5.53,0,0,0,3.55-2.78.63.63,0,0,1,.66-.4c1.81,0,3.62,0,5.44,0h.48c-.15.4-.27.74-.4,1.08a11.54,11.54,0,0,1-9.26,7.72c-.7.12-1.41.19-2.11.28Zm-5.35-17h11.92c-.78-4.09-2.6-6-6.69-5.63A5.41,5.41,0,0,0,194.87,29.15Z"/><path class="cls-1" d="M57,46.14c-.77-.11-1.55-.18-2.32-.32A12.12,12.12,0,0,1,46,39.67a14.47,14.47,0,0,1-1.76-6.45,15.4,15.4,0,0,1,1.7-8.56,12.6,12.6,0,0,1,9.19-6.57,14.15,14.15,0,0,1,6.69.28A11.25,11.25,0,0,1,68.7,24a22.45,22.45,0,0,1,1.56,3.68,10.1,10.1,0,0,1,.32,2.59c0,1.12,0,2.24,0,3.42H51.26a8.73,8.73,0,0,0,.8,3.7,4.94,4.94,0,0,0,3.53,2.87,8.52,8.52,0,0,0,4.85-.16,5.55,5.55,0,0,0,3.27-2.83.42.42,0,0,1,.29-.2h6.2l.1,0c-1.3,3.78-3.42,6.79-7.38,8.15a14.67,14.67,0,0,1-4,.81c-.13,0-.26,0-.38.07Zm6.31-17a7.26,7.26,0,0,0-1.3-3.62,4.36,4.36,0,0,0-2.3-1.69,6.53,6.53,0,0,0-7,1.55c-1.06,1.06-1.19,2.38-1.39,3.76Z"/><path class="cls-1" d="M102.82,26.67a6.67,6.67,0,0,1,.52-2.9A8.75,8.75,0,0,1,108,19.2,15.14,15.14,0,0,1,113.32,18a28.51,28.51,0,0,1,7.32.38,8.8,8.8,0,0,1,4.64,2.34A6,6,0,0,1,127,24.77c0,.81,0,1.61,0,2.42,0,4,0,7.92,0,11.88a29.65,29.65,0,0,0,.31,4,14.14,14.14,0,0,0,.71,2.27.71.71,0,0,1-.22,0h-6.75a.49.49,0,0,1-.56-.38c-.19-.67-.37-1.34-.55-2,0,0,0,0-.09.06a10.94,10.94,0,0,1-6.6,2.88,15.28,15.28,0,0,1-4.82-.17,9.13,9.13,0,0,1-4.11-2A7.11,7.11,0,0,1,102,38.66a7.57,7.57,0,0,1,2.41-6.57,8,8,0,0,1,3.33-1.68,48,48,0,0,1,6.42-1c1.19-.17,2.37-.39,3.54-.65A4.9,4.9,0,0,0,119,28.1a1.54,1.54,0,0,0,.72-1.09,3.26,3.26,0,0,0-1.39-3.61,4.36,4.36,0,0,0-1.71-.59,13.43,13.43,0,0,0-3,0,3.79,3.79,0,0,0-3.35,3.55c0,.21-.08.33-.33.33H103Zm16.94,5.7-.13-.06a7.84,7.84,0,0,1-3.57,1.18c-1.3.23-2.61.44-3.89.73A3.41,3.41,0,0,0,109.32,38a3,3,0,0,0,2.13,2.76,8.7,8.7,0,0,0,3.93.19,4.45,4.45,0,0,0,2.07-.73,4.71,4.71,0,0,0,2.12-3.64C119.65,35.16,119.7,33.76,119.76,32.37Z"/><path class="cls-1" d="M156.11,45.32h-7.34V44.8c0-4.74,0-9.48,0-14.22a12.27,12.27,0,0,0-.52-4,3.89,3.89,0,0,0-3.9-2.9,5.63,5.63,0,0,0-4.43,1.56,5.73,5.73,0,0,0-1.51,3.51,28.21,28.21,0,0,0-.18,3.05c0,4.41,0,8.82,0,13.23v.48H130.9V18.57h7.21v3.76a1.41,1.41,0,0,0,.23-.2,8.44,8.44,0,0,1,5.94-4,11.71,11.71,0,0,1,7.2.67,6.75,6.75,0,0,1,3.35,3.35,10.87,10.87,0,0,1,1.2,4.73c.06,1.66.08,3.33.08,5,0,4.31,0,8.61,0,12.91Z"/><path class="cls-1" d="M178.3,35.1h7c-.77,5.9-4.23,9.51-9.47,10.56a15,15,0,0,1-9.58-1,12.14,12.14,0,0,1-7-8.69A16.19,16.19,0,0,1,161,24.21a11.89,11.89,0,0,1,7.7-5.87,15.49,15.49,0,0,1,9.92.72A9.73,9.73,0,0,1,185,27.89a1.2,1.2,0,0,1,0,.19h-7.17c-.05-.3-.09-.61-.15-.92A4.53,4.53,0,0,0,173,23.33c-3.41-.21-5.35,2.15-6.17,4.64a14.53,14.53,0,0,0-.43,6,8.34,8.34,0,0,0,1.66,4.39c1.59,2.08,3.7,2.5,6.1,2a5.28,5.28,0,0,0,4-4.56C178.24,35.55,178.27,35.34,178.3,35.1Z"/><path class="cls-1" d="M64.72,11v3.53H49.82V11Z"/></svg>