<svg id="Capa_1" data-name="Capa 1" xmlns="http://www.w3.org/2000/svg" viewBox="0 0 76.46 75.73"><defs><style>.cls-1{fill:#ead8d0;}</style></defs><title>iconos</title><path class="cls-1" d="M10.11,71.25a6.78,6.78,0,0,1-1.73-2.84,16.44,16.44,0,0,1,3.9-18.28,8.25,8.25,0,0,1,7-2.12.85.85,0,0,0,.68-.28c2.44-3.53,4.86-7.08,7.35-10.73-.32-.3-.66-.6-1-.91q-9.5-9.5-19-19a7.24,7.24,0,0,1-2.34-5.46A6.91,6.91,0,0,1,9.43,5.14a6.7,6.7,0,0,1,7.68,1.3c3.2,3,6.26,6.2,9.38,9.31L37.23,26.48l.41.38,2.14-1.92c6.9-6.25,13.86-12.44,20.69-18.78,3.13-2.9,7.61-1.07,8.91,2.22a5,5,0,0,1-1,5.59q-8.16,9-16.27,18a5.66,5.66,0,0,1-.6.6,1.06,1.06,0,0,1-1.42-.06,1,1,0,0,1-.13-1.41c.43-.55.91-1.06,1.37-1.57L66.79,12.39a2.89,2.89,0,0,0,.27-3.7A3.49,3.49,0,0,0,63.37,7a2.72,2.72,0,0,0-1.07.58Q50.83,17.92,39.36,28.31s0,.07,0,0l6.83,6.8c.31-.34.71-.79,1.12-1.23.62-.68,1.3-.8,1.81-.33s.46,1.09-.14,1.78c-.43.48-.87,1-1.37,1.53.86.84,1.72,1.67,2.56,2.51Q58.09,47.35,66,55.29a2.55,2.55,0,0,1,.5.82c1.56,4,3.12,8.07,4.66,12.12a2.64,2.64,0,0,1,.2,1.32c-.2,1.17-1.32,1.64-2.6,1.15-3.49-1.34-7-2.74-10.49-4a10.15,10.15,0,0,1-3.91-2.53C49,58.63,43.45,53.17,38,47.69c-.16-.17-.3-.37-.47-.58l-2.44,1.63c-2.67,1.79-5.32,3.59-8,5.36a1,1,0,0,0-.54,1.19A7.67,7.67,0,0,1,25.38,61c-.45.7-1.07.92-1.63.58a1.13,1.13,0,0,1-.25-1.71,6.41,6.41,0,0,0-10.14-7.71A13.62,13.62,0,0,0,9.44,63.33c.14,1.36.5,2.7.76,4h.23c.28-.44.56-.89.85-1.31a7.25,7.25,0,0,1,4.92-3c1-.18,2.08-.39,3.12-.61.8-.16,1.4.12,1.57.76s-.25,1.21-1.1,1.39c-1.27.28-2.54.51-3.81.79A4.93,4.93,0,0,0,12.66,68c-.37.68-.62,1.42-1,2.11a9.67,9.67,0,0,1-.79,1.14ZM63.6,56.14,24.94,17.49,22.2,20.22c.22.19.49.4.74.64.73.72,1.46,1.43,2.16,2.17a1.11,1.11,0,1,1-1.55,1.57c-.19-.18-.37-.37-.55-.55l-2.31-2.31L18,24.41Q37.31,43.69,56.69,63.07l2.59-2.72a1,1,0,0,0-.16-.18q-7.5-7.52-15-15L27.44,28.48a3.17,3.17,0,0,1-.34-.39,1.08,1.08,0,0,1,1.47-1.51,3.27,3.27,0,0,1,.63.55q15.61,15.6,31.22,31.22a2.42,2.42,0,0,1,.36.58ZM22.23,48.41,26,52.19l9.73-6.54-6.85-6.9ZM18.92,11.6c-1.17-1.23-2.28-2.6-3.59-3.75A4.82,4.82,0,0,0,9,8a4.72,4.72,0,0,0-1.07,6,47.14,47.14,0,0,0,4,4.6Zm46,46.52-6.22,6.32,10.16,3.91ZM13.76,20.18l2.49,2.49,6.94-6.91-2.51-2.5Z"/></svg>