<?xml version="1.0" encoding="utf-8"?>
<!-- Generator: Adobe Illustrator 22.0.1, SVG Export Plug-In . SVG Version: 6.00 Build 0)  -->
<svg version="1.1" id="Capa_1" xmlns="http://www.w3.org/2000/svg" xmlns:xlink="http://www.w3.org/1999/xlink" x="0px" y="0px"
	 viewBox="0 0 75.2 37.9" style="enable-background:new 0 0 75.2 37.9;" xml:space="preserve">
<style type="text/css">
	.st0{fill:#FFFFFF;}
</style>
<path class="st0" d="M1.7,28.8h0.7l2.2,5l2.2-5h0.7l-2.8,6.5H4.5L1.7,28.8z"/>
<polygon class="st0" points="10.9,28.8 10.7,28.8 7.6,35.3 8.4,35.3 10.8,30.2 13.2,35.3 13.9,35.3 "/>
<polygon class="st0" points="37.7,28.8 37.5,28.8 34.4,35.3 35.2,35.3 37.6,30.2 40,35.3 40.7,35.3 "/>
<polygon class="st0" points="65.6,28.8 65.4,28.8 62.3,35.3 63,35.3 65.5,30.2 67.9,35.3 68.6,35.3 "/>
<path class="st0" d="M15.6,28.8h0.7v5.9h2.5v0.6h-3.2V28.8z"/>
<path class="st0" d="M20.5,28.8h3.7v0.6h-3.1v2h3.1v0.6h-3.1v2.6h3.1v0.6h-3.7V28.8z"/>
<path class="st0" d="M26.1,28.8h1.3c0.5,0,1,0,1.5,0.1c0.4,0.1,0.7,0.3,0.9,0.6c0.2,0.3,0.4,0.7,0.4,1.1c0,0.3-0.1,0.7-0.2,0.9
	c-0.2,0.3-0.4,0.5-0.7,0.6c-0.4,0.2-0.8,0.2-1.3,0.2l2.4,3h-0.8l-2.4-3h-0.4v3h-0.6L26.1,28.8z M26.7,29.4v2.2h1.1
	c0.3,0,0.7,0,1-0.1c0.2-0.1,0.4-0.2,0.5-0.4c0.2-0.4,0.2-0.8,0-1.2c-0.1-0.2-0.3-0.3-0.5-0.4c-0.3-0.1-0.7-0.1-1-0.1L26.7,29.4z"/>
<path class="st0" d="M32.2,28.8h0.7v6.5h-0.7V28.8z"/>
<path class="st0" d="M44.8,28.9h0.7l2.2,5.1l2.2-5h0.7l-2.8,6.5h-0.1L44.8,28.9z"/>
<path class="st0" d="M52.6,28.8h0.7v6.5h-0.7V28.8z"/>
<path class="st0" d="M55.4,35.3v-6.5h1.4c0.7,0,1.4,0,2.1,0.2c0.6,0.2,1.1,0.6,1.5,1.1c0.4,0.6,0.6,1.3,0.5,2c0,0.6-0.1,1.2-0.4,1.7
	c-0.2,0.5-0.6,0.9-1.1,1.1c-0.6,0.3-1.2,0.4-1.9,0.4L55.4,35.3z M56.1,34.7h0.8c0.6,0,1.3,0,1.9-0.2c0.5-0.1,0.9-0.4,1.2-0.9
	c0.3-0.5,0.4-1,0.4-1.5c0-0.6-0.1-1.1-0.5-1.6c-0.3-0.4-0.8-0.8-1.3-0.9c-0.7-0.2-1.3-0.2-2-0.2h-0.5L56.1,34.7z"/>
<path class="st0" d="M70.3,28.8H71v5.9h2.5v0.6h-3.2V28.8z"/>
<polygon class="st0" points="38.2,2.5 34,10 32.8,12.2 28.1,20.6 22.2,9.9 19.2,9.9 27.8,25.4 28.5,25.4 41.2,2.5 "/>
<polygon class="st0" points="37.1,25.4 41.3,17.9 42.6,15.7 47.2,7.4 53.1,18 56.1,18 47.5,2.5 46.9,2.5 34.1,25.4 "/>
</svg>
