<svg id="Capa_1" data-name="Capa 1" xmlns="http://www.w3.org/2000/svg" viewBox="0 0 76.46 75.73"><defs><style>.cls-1{fill:#ead8d0;}</style></defs><title>iconos</title><path class="cls-1" d="M72,11.91V56.5l-.05,0a1.43,1.43,0,0,1-1.64,1A1.45,1.45,0,0,1,69.19,56V52.33c0-.11,0-.23,0-.36H7.3a2.12,2.12,0,0,0,0,.24v5.37a2.59,2.59,0,0,0,0,.56,2.82,2.82,0,0,0,2.93,2.25h53a1.41,1.41,0,0,1,1.32,1.18,1.39,1.39,0,0,1-.91,1.55,2.59,2.59,0,0,1-.74.09H45.28V66h2.53c1,0,2.11,0,3.16,0a1.39,1.39,0,0,1,1.18,2,1.66,1.66,0,0,1-.92.79h-26a4,4,0,0,1-.68-.44,1.4,1.4,0,0,1,1-2.37c1.57,0,3.13,0,4.69,0h.92v-2.8h-21A5.62,5.62,0,0,1,4.62,59c-.06-.24-.11-.49-.16-.73V11.91l.06-.29A5.57,5.57,0,0,1,8.45,7.14c.33-.11.68-.17,1-.25H67a1.27,1.27,0,0,0,.18.06,5.53,5.53,0,0,1,4.38,3.39A13,13,0,0,1,72,11.91ZM69.19,49.1V16.43c0-.77,0-1.54,0-2.3a15,15,0,0,0-.06-2,2.76,2.76,0,0,0-2.88-2.4H10.2a2.78,2.78,0,0,0-2.92,2.92c0,1.28,0,2.57,0,3.85q0,13.25,0,26.48c0,1.91,0,3.82,0,5.74v.39ZM42.44,63.25H34V66h8.4Z"/><path class="cls-1" d="M38.24,57.57H36.79a1.36,1.36,0,0,1-1.36-1.43,1.35,1.35,0,0,1,1.38-1.36c1,0,1.93,0,2.9,0a1.4,1.4,0,0,1,.68,2.58,1.86,1.86,0,0,1-.74.21C39.18,57.6,38.71,57.57,38.24,57.57Z"/><path class="cls-1" d="M68.64,62.53a1.39,1.39,0,0,1-1.38-1.45,1.37,1.37,0,0,1,1.4-1.35,1.4,1.4,0,1,1,0,2.8Z"/><path class="cls-1" d="M38.25,43.5H62a2.13,2.13,0,0,1,.8.13,1.39,1.39,0,0,1-.4,2.65,2,2,0,0,1-.42,0H14.52a1.45,1.45,0,0,1-1.58-1.07,1.4,1.4,0,0,1,1.31-1.75h24Z"/><path class="cls-1" d="M38.23,15.34H14.4a1.41,1.41,0,1,1-.06-2.82l7.65,0,2.46,0H44.07c1.17,0,2.34,0,3.52,0l4.84,0H62a1.42,1.42,0,0,1,1.51,1.83,1.38,1.38,0,0,1-1.4,1H38.23Z"/><path class="cls-1" d="M48.32,27.8V23.88a1.41,1.41,0,1,1,2.82,0c0,2.53,0,5.06,0,7.59a2.08,2.08,0,0,0,1.33,2,2.11,2.11,0,0,0,2.92-1.92c0-2.54,0-5.08,0-7.62a1.43,1.43,0,0,1,.93-1.48,1.39,1.39,0,0,1,1.88,1.27c0,1.6,0,3.2,0,4.81v2.93a4.95,4.95,0,0,1-9.78,1.1,4.54,4.54,0,0,1-.11-1C48.31,30.29,48.32,29,48.32,27.8Z"/><path class="cls-1" d="M22.8,27.84v3.67a5,5,0,0,1-9.9,0c0-2,0-4,0-6,0-.58,0-1.15,0-1.72a1.41,1.41,0,1,1,2.82,0c0,1.3,0,2.59,0,3.89s0,2.62,0,3.92a2.12,2.12,0,0,0,4.24,0c0-.9,0-1.8,0-2.71,0-1.7,0-3.4,0-5.1a1.42,1.42,0,0,1,1.09-1.44,1.38,1.38,0,0,1,1.54.69,1.76,1.76,0,0,1,.18.79C22.81,25.21,22.8,26.52,22.8,27.84Z"/><path class="cls-1" d="M29.56,32.58l-1.08,2.15-.45.89a1.41,1.41,0,1,1-2.52-1.27c.78-1.55,1.55-3.1,2.34-4.65a.56.56,0,0,0,0-.57q-1.19-2.34-2.36-4.68a1.41,1.41,0,0,1,.42-1.8,1.38,1.38,0,0,1,1.78.11,2.17,2.17,0,0,1,.39.56c.49,1,1,1.92,1.48,2.95a4.8,4.8,0,0,0,.23-.43c.46-.9.9-1.81,1.37-2.7a1.4,1.4,0,1,1,2.48,1.32q-1.16,2.31-2.32,4.61a.68.68,0,0,0,0,.7c.79,1.54,1.57,3.1,2.34,4.65a1.4,1.4,0,0,1-2.23,1.64,2.14,2.14,0,0,1-.39-.6c-.44-.85-.87-1.71-1.3-2.56A2.91,2.91,0,0,0,29.56,32.58Z"/><path class="cls-1" d="M38.05,40.68a1.39,1.39,0,0,1-1.28-1.93q1.06-3,2.16-6c.6-1.69,1.22-3.36,1.83-5,1-2.83,2-5.67,3-8.5a1.41,1.41,0,1,1,2.66.93c-.52,1.46-1,2.92-1.57,4.38l-5.4,15A1.45,1.45,0,0,1,38.05,40.68Z"/><path class="cls-1" d="M63.57,29.42V35a1.4,1.4,0,0,1-1.38,1.46A1.38,1.38,0,0,1,60.75,35c0-2.29,0-4.57,0-6.86,0-1.43,0-2.85,0-4.28a1.4,1.4,0,0,1,1.41-1.5,1.38,1.38,0,0,1,1.4,1.34c0,1.23,0,2.46,0,3.69v2Z"/></svg>